<?xml version="1.0" encoding="UTF-8" standalone="no"?>
<!-- Created with Inkscape (http://www.inkscape.org/) -->

<svg
   version="1.1"
   id="svg345"
   width="334.96201"
   height="123"
   viewBox="0 0 334.96201 123"
   xmlns:xlink="http://www.w3.org/1999/xlink"
   xmlns="http://www.w3.org/2000/svg"
   xmlns:svg="http://www.w3.org/2000/svg">
  <style>
    * {
      fill: #000000 !important;
      stroke: none !important;
    }
  </style>
  <defs
     id="defs349">
    <linearGradient
       xlink:href="#linearGradient1542"
       id="linearGradient1544"
       x1="-250.11998"
       y1="145.32841"
       x2="-231.32658"
       y2="190.67316"
       gradientUnits="userSpaceOnUse"
       gradientTransform="matrix(1.8833939,0,0,1.8833939,519.93258,-155.4108)" />
    <linearGradient
       id="linearGradient1542">
      <stop
         style="stop-color:#f50a23;stop-opacity:1;"
         offset="0"
         id="stop1538" />
      <stop
         style="stop-color:#f5ff1e;stop-opacity:1"
         offset="1"
         id="stop1540" />
    </linearGradient>
    <radialGradient
       xlink:href="#linearGradient1542-3"
       id="radialGradient3738"
       cx="-227.379"
       cy="164.06917"
       fx="-227.379"
       fy="164.06917"
       r="30.251394"
       gradientTransform="matrix(3.4360561e-7,-1.346174,1.2212711,3.1172464e-7,-429.60674,-136.81784)"
       gradientUnits="userSpaceOnUse" />
    <linearGradient
       id="linearGradient1542-3">
      <stop
         id="stop1540-6"
         offset="0"
         style="stop-color:#f5ff1e;stop-opacity:1" />
      <stop
         id="stop1538-7"
         offset="1"
         style="stop-color:#f50a23;stop-opacity:1;" />
    </linearGradient>
  </defs>
  <g
     id="g351"
     transform="matrix(0.99994044,0,0,0.99999996,1.1716509e-6,0)">
    <g
       id="g1296"
       transform="matrix(1.0030259,0,0,1,-5.9547153e-5,0)">
      <g
         id="g1316">
        <g
           id="g299"
           transform="matrix(0.6240969,0,0,0.63439839,172.2892,-52.348243)">
          <path
             id="path4"
             d="m 173.09375,198.85768 h 26.14809 v -47.77326 c 0,-10.90093 6.36918,-18.61285 15.75952,-18.61285 9.05466,0 13.74542,6.36918 13.74542,15.42384 v 50.96227 h 26.14808 v -55.98871 c 0,-18.94853 -11.39562,-32.35826 -29.84062,-32.35826 -11.7313,0 -19.94675,5.02644 -26.14809,14.24894 h -0.50353 v -11.7313 h -25.30887 z m -51.29796,-88.17913 c -27.322986,0 -45.600147,19.61107 -45.600147,45.43231 0,25.65339 18.268327,45.4323 45.600147,45.4323 27.33182,0 45.60015,-19.77891 45.60015,-45.4323 0,-25.81241 -18.26833,-45.43231 -45.60015,-45.43231 z m -0.16784,71.5804 c -12.40268,0 -18.9397,-10.38857 -18.9397,-26.14809 0,-15.92737 6.53702,-26.14809 18.9397,-26.14809 12.40267,0 19.27538,10.22956 19.27538,26.14809 0.009,15.75952 -6.86387,26.14809 -19.27538,26.14809 z M 1.770761,198.85768 H 75.197422 V 178.23956 H 33.625494 v -0.50352 l 39.725661,-44.5931 V 113.02835 H 1.770761 v 20.61812 H 41.999949 V 134.15 L 1.770761,179.07877 Z m -33.533158,0 h 26.315932 v -85.82933 h -26.315932 z m -61.015152,0 h 26.148089 v -39.38997 c 0,-17.94148 10.733084,-25.82124 27.155144,-23.63929 h 0.503527 v -22.63223 c -1.342739,-0.50353 -2.853322,-0.67137 -5.362125,-0.67137 -10.229556,0 -17.102263,4.69076 -22.967916,14.75247 h -0.503527 v -14.24894 h -24.973192 z m -48.117781,-16.42206 c -11.56347,0 -18.60402,-7.54407 -19.94676,-19.10754 h 61.85437 c 0.167842,-18.445 -4.69076,-33.19747 -14.92031,-42.41114 -7.20839,-6.70486 -16.76658,-10.39739 -28.83357,-10.39739 -25.8124,0 -43.75388,19.61106 -43.75388,45.26446 0,25.8124 17.10226,45.60014 45.4323,45.60014 10.73309,0 19.27539,-2.85332 26.31594,-7.71191 7.54407,-5.19429 12.9062,-12.73836 14.41678,-20.28244 h -25.14103 c -2.50881,5.68897 -7.71192,9.04582 -15.42384,9.04582 z m -1.33391,-53.14422 c 9.2225,0 15.59168,6.87271 16.59874,16.93442 h -35.03491 c 2.00528,-10.22956 7.53524,-16.93442 18.43617,-16.93442 z M -31.762397,82.516355 h 26.315932 v 23.303605 h -26.315932 z"
             class="st0"
             style="fill:#f50a23;fill-opacity:1;stroke:none;stroke-width:0.883381" />
          <path
             class="st0"
             d="m -276.06152,113.02835 32.54377,84.76928 c 0.24735,0.64486 0.86571,1.06889 1.55475,1.06889 h 26.40427 c -0.68904,0 -1.3074,-0.42403 -1.55475,-1.06889 l -32.54377,-84.76928 z"
             id="path27-5"
             style="fill:url(#radialGradient3738);fill-opacity:1;stroke:none;stroke-width:0.883381" />
          <path
             class="st0"
             d="m -181.46021,113.02835 -32.54377,84.76928 c -0.24734,0.64486 -0.86571,1.06889 -1.55475,1.06889 H -241.963 c 0.68904,0 1.30741,-0.42403 1.55475,-1.06889 l 32.54377,-84.76928 z"
             id="path29-3"
             style="fill:#f50a23;fill-opacity:1;stroke:none;stroke-width:0.883381" />
        </g>
        <g
           aria-label="business"
           transform="matrix(0.9780097,0,0,1.020949,0.50161543,0)"
           id="text655"
           style="font-weight:bold;font-size:56.5736px;font-family:'Neue Haas Grotesk Display Pro';-inkscape-font-specification:'Neue Haas Grotesk Display Pro Bold';letter-spacing:-0.15px;fill:#f50a23;stroke-width:1.06076">
          <path
             d="m 134.16655,120.47615 q -5.9968,0 -8.7689,-4.58247 h -0.11315 v 3.67729 h -8.82548 V 79.120844 h 9.22149 v 14.76571 h 0.16973 q 2.9984,-4.129873 8.25974,-4.129873 5.54421,0 8.93863,4.356167 3.45099,4.356168 3.45099,10.975282 0,7.18484 -3.33784,11.31472 -3.33785,4.0733 -8.99521,4.0733 z m -2.60238,-7.298 q 2.65896,0 4.12987,-2.1498 1.47092,-2.14979 1.47092,-5.9968 0,-3.79043 -1.47092,-5.996798 -1.47091,-2.262944 -4.24302,-2.262944 -2.94183,0 -4.52589,2.319517 -1.52748,2.262945 -1.52748,5.996805 0,3.62071 1.64063,5.88365 1.69721,2.20637 4.52589,2.20637 z"
             id="path1261" />
          <path
             d="m 159.41813,120.41957 q -4.92191,0 -7.58087,-2.88525 -2.60238,-2.94183 -2.60238,-7.92031 V 90.605285 h 9.16492 v 17.085225 q 0,4.92191 4.35617,4.92191 2.37609,0 3.73386,-1.58407 1.35776,-1.64063 1.35776,-4.24302 V 90.605285 h 9.2215 v 28.965685 h -8.82548 v -3.56414 h -0.16972 q -3.28127,4.41274 -8.65576,4.41274 z"
             id="path1263" />
          <path
             d="m 193.66487,120.47615 q -6.33624,0 -10.12667,-2.71554 -3.73386,-2.7721 -3.96015,-7.58086 h 8.71233 q 0.50916,4.29959 5.31792,4.29959 2.09322,0 3.28127,-0.73545 1.24462,-0.79203 1.24462,-2.1498 0,-0.45259 -0.11315,-0.79203 -0.11315,-0.33944 -0.39601,-0.62231 -0.28287,-0.28287 -0.56574,-0.50916 -0.2263,-0.2263 -0.73546,-0.39602 -0.50916,-0.22629 -0.90518,-0.33944 -0.33944,-0.11315 -1.07489,-0.22629 -0.67889,-0.16972 -1.0749,-0.2263 -0.39602,-0.11314 -1.24462,-0.22629 -0.84861,-0.16972 -1.24462,-0.2263 -1.81036,-0.28286 -3.05497,-0.56573 -1.24462,-0.33944 -2.77211,-1.01833 -1.47091,-0.67888 -2.43267,-1.52748 -0.90517,-0.90518 -1.52748,-2.3761 -0.62231,-1.52748 -0.62231,-3.507558 0,-4.412741 3.56413,-6.845406 3.56414,-2.432665 8.93863,-2.432665 6.05338,0 9.39122,2.489238 3.33784,2.432665 3.67728,6.788833 h -8.48604 q -0.45258,-3.394416 -4.63903,-3.394416 -1.81036,0 -2.94183,0.678883 -1.0749,0.678883 -1.0749,1.980076 0,0.339441 0.11315,0.622309 0.11315,0.282868 0.33944,0.509163 0.28287,0.226294 0.50916,0.396015 0.28287,0.169721 0.73546,0.339438 0.45259,0.16972 0.79203,0.28287 0.39602,0.11315 1.01833,0.2263 0.67888,0.11314 1.0749,0.22629 0.45258,0.0566 1.18804,0.22629 0.73546,0.11315 1.18805,0.16973 1.9235,0.33944 3.16812,0.62231 1.24462,0.28286 2.88525,1.01832 1.69721,0.67888 2.65896,1.64063 0.96175,0.90518 1.64064,2.54582 0.73545,1.58406 0.73545,3.73385 0,4.63904 -3.67728,7.12828 -3.62071,2.48924 -9.50437,2.48924 z"
             id="path1265" />
          <path
             d="M 209.69491,119.57097 V 90.605285 h 9.2215 v 28.965685 z m 0,-32.982411 v -7.467715 h 9.2215 v 7.467715 z"
             id="path1267" />
          <path
             d="M 223.1791,119.57097 V 90.605285 h 8.88206 v 3.960152 h 0.16972 q 3.33784,-4.808756 8.93863,-4.808756 4.69561,0 7.35457,3.054974 2.71553,2.998401 2.71553,7.920305 v 18.83901 h -9.2215 v -16.97208 q 0,-2.37609 -1.18804,-3.733859 -1.13148,-1.41434 -3.33785,-1.41434 -2.26294,0 -3.67728,1.697208 -1.41434,1.697211 -1.41434,4.412741 v 16.01033 z"
             id="path1269" />
          <path
             d="m 269.41943,120.41957 q -7.01512,0 -11.25814,-4.29959 -4.18645,-4.35617 -4.18645,-11.08843 0,-6.562534 4.12987,-10.918702 4.18645,-4.356167 10.74899,-4.356167 5.94023,0 9.90038,3.62071 5.20477,4.752183 5.09162,14.086829 h -20.81908 q 0.45259,2.9984 2.09322,4.69561 1.64064,1.64063 4.41274,1.64063 3.56414,0 4.80876,-2.88525 h 8.9952 q -1.01832,4.18644 -4.86533,6.8454 -3.79043,2.65896 -9.05178,2.65896 z m -6.33624,-18.44299 h 11.42787 q -0.2263,-2.602387 -1.75378,-4.129874 -1.47092,-1.527487 -3.73386,-1.527487 -4.9219,0 -5.94023,5.657361 z"
             id="path1271" />
          <path
             d="m 299.14027,120.47615 q -6.33624,0 -10.12668,-2.71554 -3.73385,-2.7721 -3.96015,-7.58086 h 8.71234 q 0.50916,4.29959 5.31791,4.29959 2.09323,0 3.28127,-0.73545 1.24462,-0.79203 1.24462,-2.1498 0,-0.45259 -0.11314,-0.79203 -0.11315,-0.33944 -0.39602,-0.62231 -0.28287,-0.28287 -0.56574,-0.50916 -0.22629,-0.2263 -0.73545,-0.39602 -0.50916,-0.22629 -0.90518,-0.33944 -0.33944,-0.11315 -1.0749,-0.22629 -0.67888,-0.16972 -1.0749,-0.2263 -0.39601,-0.11314 -1.24462,-0.22629 -0.8486,-0.16972 -1.24462,-0.2263 -1.81035,-0.28286 -3.05497,-0.56573 -1.24462,-0.33944 -2.77211,-1.01833 -1.47091,-0.67888 -2.43266,-1.52748 -0.90518,-0.90518 -1.52749,-2.3761 -0.62231,-1.52748 -0.62231,-3.507558 0,-4.412741 3.56414,-6.845406 3.56414,-2.432665 8.93863,-2.432665 6.05337,0 9.39122,2.489238 3.33784,2.432665 3.67728,6.788833 h -8.48604 q -0.45259,-3.394416 -4.63904,-3.394416 -1.81035,0 -2.94182,0.678883 -1.0749,0.678883 -1.0749,1.980076 0,0.339441 0.11315,0.622309 0.11314,0.282868 0.33944,0.509163 0.28287,0.226294 0.50916,0.396015 0.28287,0.169721 0.73546,0.339438 0.45259,0.16972 0.79203,0.28287 0.39601,0.11315 1.01832,0.2263 0.67889,0.11314 1.0749,0.22629 0.45259,0.0566 1.18805,0.22629 0.73545,0.11315 1.18804,0.16973 1.9235,0.33944 3.16812,0.62231 1.24462,0.28286 2.88526,1.01832 1.6972,0.67888 2.65896,1.64063 0.96175,0.90518 1.64063,2.54582 0.73546,1.58406 0.73546,3.73385 0,4.63904 -3.67729,7.12828 -3.62071,2.48924 -9.50436,2.48924 z"
             id="path1273" />
          <path
             d="m 327.78617,120.47615 q -6.33624,0 -10.12667,-2.71554 -3.73386,-2.7721 -3.96015,-7.58086 h 8.71233 q 0.50916,4.29959 5.31792,4.29959 2.09322,0 3.28127,-0.73545 1.24462,-0.79203 1.24462,-2.1498 0,-0.45259 -0.11315,-0.79203 -0.11315,-0.33944 -0.39602,-0.62231 -0.28286,-0.28287 -0.56573,-0.50916 -0.2263,-0.2263 -0.73546,-0.39602 -0.50916,-0.22629 -0.90518,-0.33944 -0.33944,-0.11315 -1.07489,-0.22629 -0.67889,-0.16972 -1.0749,-0.2263 -0.39602,-0.11314 -1.24462,-0.22629 -0.84861,-0.16972 -1.24462,-0.2263 -1.81036,-0.28286 -3.05498,-0.56573 -1.24461,-0.33944 -2.7721,-1.01833 -1.47092,-0.67888 -2.43267,-1.52748 -0.90517,-0.90518 -1.52748,-2.3761 -0.62231,-1.52748 -0.62231,-3.507558 0,-4.412741 3.56413,-6.845406 3.56414,-2.432665 8.93863,-2.432665 6.05338,0 9.39122,2.489238 3.33784,2.432665 3.67728,6.788833 h -8.48604 q -0.45258,-3.394416 -4.63903,-3.394416 -1.81036,0 -2.94183,0.678883 -1.0749,0.678883 -1.0749,1.980076 0,0.339441 0.11315,0.622309 0.11315,0.282868 0.33944,0.509163 0.28287,0.226294 0.50916,0.396015 0.28287,0.169721 0.73546,0.339438 0.45259,0.16972 0.79203,0.28287 0.39602,0.11315 1.01833,0.2263 0.67888,0.11314 1.07489,0.22629 0.45259,0.0566 1.18805,0.22629 0.73546,0.11315 1.18805,0.16973 1.9235,0.33944 3.16812,0.62231 1.24462,0.28286 2.88525,1.01832 1.69721,0.67888 2.65896,1.64063 0.96175,0.90518 1.64064,2.54582 0.73545,1.58406 0.73545,3.73385 0,4.63904 -3.67728,7.12828 -3.62071,2.48924 -9.50437,2.48924 z"
             id="path1275" />
        </g>
      </g>
    </g>
  </g>
</svg>
